<svg xmlns="http://www.w3.org/2000/svg" viewBox="0 0 47.38 47.38"><defs><style>.cls-1{fill:#211915;stroke:#211915;stroke-miterlimit:10;stroke-width:0.25px;}</style></defs><g id="Capa_2" data-name="Capa 2"><g id="competición"><path class="cls-1" d="M23.69.12A23.57,23.57,0,1,0,47.25,23.69,23.57,23.57,0,0,0,23.69.12Zm0,44.72A21.15,21.15,0,1,1,44.84,23.69,21.15,21.15,0,0,1,23.69,44.84Z"/><rect class="cls-1" x="18.74" y="36.81" width="9.86" height="3.74"/><path class="cls-1" d="M35.57,12.74a6.61,6.61,0,0,0-2.08.13c-1,.21-1.39.54-2.47.76a7.88,7.88,0,0,1-1.5.14v-.89H17.82v.89a7.9,7.9,0,0,1-1.51-.14c-1.08-.22-1.51-.55-2.47-.76a6.61,6.61,0,0,0-2.08-.13,12.3,12.3,0,0,0,.71,6.3,8.57,8.57,0,0,0,3.84,4.85,6.86,6.86,0,0,0,2.77.71,5.73,5.73,0,0,0,3.74,2.47v6.82H21.76v.88H19.83v.86H27.5v-.86H25.57v-.88H24.52V27.07a5.75,5.75,0,0,0,3.74-2.47A6.85,6.85,0,0,0,31,23.89,8.52,8.52,0,0,0,34.86,19,12.3,12.3,0,0,0,35.57,12.74ZM16.64,23a7.83,7.83,0,0,1-3.59-4.68,9.27,9.27,0,0,1-.52-2.77,9.15,9.15,0,0,1,.15-2,4.76,4.76,0,0,1,1.27.09,16.38,16.38,0,0,1,2.07.77,5.64,5.64,0,0,0,1.8.23v5.86a7.24,7.24,0,0,0,.69,3.07A6.54,6.54,0,0,1,16.64,23ZM34.8,15.58a9.27,9.27,0,0,1-.52,2.77A7.83,7.83,0,0,1,30.69,23a6.44,6.44,0,0,1-1.87.59,7.25,7.25,0,0,0,.7-3.07V14.69a5.61,5.61,0,0,0,1.79-.23,17,17,0,0,1,2.07-.77,4.76,4.76,0,0,1,1.27-.09A8.56,8.56,0,0,1,34.8,15.58Z"/><path class="cls-1" d="M16.19,6a1.26,1.26,0,0,1,.34.55,1.29,1.29,0,0,1-.06.81,2.55,2.55,0,0,1-.27.57,2.73,2.73,0,0,1-.28.41,2.85,2.85,0,0,1-.74.6,1.15,1.15,0,0,1-.25-1.18,1.39,1.39,0,0,1,.57-.62A1.45,1.45,0,0,0,16,6.69,1.24,1.24,0,0,0,16.19,6Z"/><path class="cls-1" d="M18.53,8.05a1.33,1.33,0,0,0-.59-.1,1.3,1.3,0,0,0-.7.23,3.6,3.6,0,0,0-.43.32,2.17,2.17,0,0,0-.28.3,2,2,0,0,0-.33.66,1.3,1.3,0,0,0,1.12-.1,1,1,0,0,0,.39-.55A1.1,1.1,0,0,1,18,8.38,1.23,1.23,0,0,1,18.53,8.05Z"/><path class="cls-1" d="M12,9a1.14,1.14,0,0,1,.34.54,1.17,1.17,0,0,1,0,.78,3.55,3.55,0,0,1-.25.57,3.6,3.6,0,0,1-.27.39,2.85,2.85,0,0,1-.7.59,1.09,1.09,0,0,1-.27-1.14,1.28,1.28,0,0,1,.55-.61,1.63,1.63,0,0,0,.44-.42A1.2,1.2,0,0,0,12,9Z"/><path class="cls-1" d="M15.59,10.15a1.72,1.72,0,0,0-.73-.17,1.62,1.62,0,0,0-.9.24,3.2,3.2,0,0,0-.58.37,2.5,2.5,0,0,0-.83,1.14,1.66,1.66,0,0,0,1.42,0A1.24,1.24,0,0,0,14.5,11a1.31,1.31,0,0,1,.35-.51A1.56,1.56,0,0,1,15.59,10.15Z"/><path class="cls-1" d="M10.63,13.94a1.12,1.12,0,0,0-.52,0,1.1,1.1,0,0,0-.57.31,2.62,2.62,0,0,0-.33.37,1.5,1.5,0,0,0-.2.32,2.23,2.23,0,0,0-.18.68.92.92,0,0,0,1.2-.81,1,1,0,0,1,.6-.83Z"/><path class="cls-1" d="M8,12.79a.92.92,0,0,1,.38.27,1,1,0,0,1,.2.54,2.23,2.23,0,0,1,0,.45,2.15,2.15,0,0,1-.06.33,1.74,1.74,0,0,1-.28.58.8.8,0,0,1-.33-1.25,1,1,0,0,0,.16-.4A.88.88,0,0,0,8,12.79Z"/><path class="cls-1" d="M10.18,16.51a1.51,1.51,0,0,1,.27.72,1.62,1.62,0,0,1-.18.93,3.7,3.7,0,0,1-.37.62,3.09,3.09,0,0,1-.35.41,2.57,2.57,0,0,1-.84.55,1.57,1.57,0,0,1-.09-1.44,1.39,1.39,0,0,1,.69-.6,1.47,1.47,0,0,0,.53-.41A1.45,1.45,0,0,0,10.18,16.51Z"/><path class="cls-1" d="M6.18,16.7a1.2,1.2,0,0,0-.35.58,1.26,1.26,0,0,0,.08.84,3.15,3.15,0,0,0,.31.6,2.68,2.68,0,0,0,.31.42,3.15,3.15,0,0,0,.8.62,1.17,1.17,0,0,0,.25-1.24,1.46,1.46,0,0,0-.64-.64,1.67,1.67,0,0,1-.5-.44A1.31,1.31,0,0,1,6.18,16.7Z"/><path class="cls-1" d="M9.31,20.74a.75.75,0,0,1,.2.44.85.85,0,0,1-.17.58,1.81,1.81,0,0,1-.31.4,1.62,1.62,0,0,1-.29.26,2.56,2.56,0,0,1-.7.36.76.76,0,0,1,0-.89,1.09,1.09,0,0,1,.56-.39A1.32,1.32,0,0,0,9,21.23.89.89,0,0,0,9.31,20.74Z"/><path class="cls-1" d="M4.92,21a1.14,1.14,0,0,0-.22.65,1.24,1.24,0,0,0,.29.81,4,4,0,0,0,.47.52,3,3,0,0,0,.44.34,3.43,3.43,0,0,0,1,.42,1.4,1.4,0,0,0,0-1.14A1.43,1.43,0,0,0,6.22,22c-.38-.19-.57-.1-.84-.29A1.25,1.25,0,0,1,4.92,21Z"/><path class="cls-1" d="M9.15,23.77a1.45,1.45,0,0,1,.22.63,1.42,1.42,0,0,1-.15.82,3.49,3.49,0,0,1-.3.54,3.1,3.1,0,0,1-.3.36,2.26,2.26,0,0,1-.71.47,1.4,1.4,0,0,1-.07-1.26,1.15,1.15,0,0,1,.57-.52,1.25,1.25,0,0,0,.46-.36A1.47,1.47,0,0,0,9.15,23.77Z"/><path class="cls-1" d="M4.89,25.69a1.33,1.33,0,0,0,0,.7,1.37,1.37,0,0,0,.48.75,3,3,0,0,0,.57.41,3,3,0,0,0,.48.24,3.1,3.1,0,0,0,1,.19,1.22,1.22,0,0,0-.36-1.26,1.52,1.52,0,0,0-.89-.29,1.71,1.71,0,0,1-.68-.18A1.31,1.31,0,0,1,4.89,25.69Z"/><path class="cls-1" d="M10.36,27.78a1.33,1.33,0,0,1,.23.62,1.36,1.36,0,0,1-.16.81,3.91,3.91,0,0,1-.32.54,3.24,3.24,0,0,1-.31.36,2.48,2.48,0,0,1-.74.47A1.31,1.31,0,0,1,9,29.33a1.18,1.18,0,0,1,.6-.52,1.33,1.33,0,0,0,.47-.35A1.27,1.27,0,0,0,10.36,27.78Z"/><path class="cls-1" d="M5.61,29.69a1.29,1.29,0,0,0,.1.7,1.36,1.36,0,0,0,.62.63,3.64,3.64,0,0,0,.64.29,4.05,4.05,0,0,0,.53.13,3.4,3.4,0,0,0,1.05,0,1.24,1.24,0,0,0-.62-1.17,1.45,1.45,0,0,0-.92-.1,1.72,1.72,0,0,1-.7,0A1.34,1.34,0,0,1,5.61,29.69Z"/><path class="cls-1" d="M11.08,31a1.73,1.73,0,0,1,.89.12,1.83,1.83,0,0,1,.82.75,4,4,0,0,1,.39.78,3.7,3.7,0,0,1,.19.64,3.57,3.57,0,0,1,0,1.26,1.62,1.62,0,0,1-1.49-.74,1.79,1.79,0,0,1-.17-1.12,2.07,2.07,0,0,0-.07-.85A1.68,1.68,0,0,0,11.08,31Z"/><path class="cls-1" d="M8.49,33.66a1.51,1.51,0,0,0,.11.75,1.56,1.56,0,0,0,.65.68,4.17,4.17,0,0,0,.66.31,3.59,3.59,0,0,0,.55.16,3.16,3.16,0,0,0,1.07,0,1.35,1.35,0,0,0-.65-1.24,1.47,1.47,0,0,0-1-.13,1.72,1.72,0,0,1-.72,0A1.41,1.41,0,0,1,8.49,33.66Z"/><path class="cls-1" d="M14.9,34.07a2,2,0,0,1,1.07.15,2,2,0,0,1,1,1,4.89,4.89,0,0,1,.44,1,5.18,5.18,0,0,1,.19.81,4.94,4.94,0,0,1,0,1.61,1.84,1.84,0,0,1-1.77-1,2.23,2.23,0,0,1-.15-1.42,2.86,2.86,0,0,0,0-1.07A2,2,0,0,0,14.9,34.07Z"/><path class="cls-1" d="M11.87,37A1.83,1.83,0,0,0,12,38a2,2,0,0,0,.81.9,4.15,4.15,0,0,0,.81.44,3.82,3.82,0,0,0,.66.22,3.76,3.76,0,0,0,1.31,0A1.93,1.93,0,0,0,14.79,38a1.89,1.89,0,0,0-1.16-.21,1.93,1.93,0,0,1-.87-.09A1.84,1.84,0,0,1,11.87,37Z"/><path class="cls-1" d="M31.15,6a1.18,1.18,0,0,0-.34.55,1.2,1.2,0,0,0,.05.8,3.14,3.14,0,0,0,.27.58,2,2,0,0,0,.29.4,2.56,2.56,0,0,0,.73.6,1.14,1.14,0,0,0,.26-1.17,1.29,1.29,0,0,0-.58-.62,1.57,1.57,0,0,1-.46-.43A1.21,1.21,0,0,1,31.15,6Z"/><path class="cls-1" d="M28.81,8a1.4,1.4,0,0,1,.58-.11,1.41,1.41,0,0,1,.7.23,3.13,3.13,0,0,1,.44.33,3,3,0,0,1,.28.3,2,2,0,0,1,.32.66A1.33,1.33,0,0,1,30,9.33a1,1,0,0,1-.38-.55,1,1,0,0,0-.26-.43A1.26,1.26,0,0,0,28.81,8Z"/><path class="cls-1" d="M35.36,8.93a1.17,1.17,0,0,0-.34.53,1.24,1.24,0,0,0,0,.79,2.79,2.79,0,0,0,.25.56,2.14,2.14,0,0,0,.27.4,2.5,2.5,0,0,0,.7.59,1.13,1.13,0,0,0,.26-1.15,1.24,1.24,0,0,0-.54-.6,1.56,1.56,0,0,1-.44-.43A1.19,1.19,0,0,1,35.36,8.93Z"/><path class="cls-1" d="M31.74,10.12a1.79,1.79,0,0,1,1.64.06,3.74,3.74,0,0,1,.58.38,2.63,2.63,0,0,1,.37.35,2.21,2.21,0,0,1,.46.79,1.66,1.66,0,0,1-1.42,0,1.22,1.22,0,0,1-.54-.66,1.2,1.2,0,0,0-.34-.51A1.62,1.62,0,0,0,31.74,10.12Z"/><path class="cls-1" d="M36.71,13.91a1.12,1.12,0,0,1,.52,0,1.07,1.07,0,0,1,.57.31,2.15,2.15,0,0,1,.33.37,2.21,2.21,0,0,1,.19.32,1.81,1.81,0,0,1,.19.68,1.05,1.05,0,0,1-.95-.23.92.92,0,0,1-.25-.58,1.11,1.11,0,0,0-.16-.45A1,1,0,0,0,36.71,13.91Z"/><path class="cls-1" d="M39.36,12.76A.82.82,0,0,0,39,13a.85.85,0,0,0-.2.54,1.67,1.67,0,0,0,0,.45,1.36,1.36,0,0,0,.06.33,1.56,1.56,0,0,0,.28.58.87.87,0,0,0,.51-.7.91.91,0,0,0-.18-.55,1.1,1.1,0,0,1-.16-.4A.88.88,0,0,1,39.36,12.76Z"/><path class="cls-1" d="M37.15,16.48a1.64,1.64,0,0,0-.26.72,1.62,1.62,0,0,0,.18.93,4,4,0,0,0,.36.62,3.34,3.34,0,0,0,.36.41,2.74,2.74,0,0,0,.84.55,1.56,1.56,0,0,0,.08-1.44,1.32,1.32,0,0,0-.68-.6,1.52,1.52,0,0,1-.54-.41A1.54,1.54,0,0,1,37.15,16.48Z"/><path class="cls-1" d="M41.16,16.67a1.2,1.2,0,0,1,.35.58,1.26,1.26,0,0,1-.09.84,3,3,0,0,1-.3.6,2.91,2.91,0,0,1-.32.42,3,3,0,0,1-.8.61,1.17,1.17,0,0,1-.24-1.23,1.45,1.45,0,0,1,.63-.64,1.81,1.81,0,0,0,.51-.44A1.31,1.31,0,0,0,41.16,16.67Z"/><path class="cls-1" d="M38,20.71a.86.86,0,0,0-.2.44.85.85,0,0,0,.17.58,2.74,2.74,0,0,0,.31.4c.06.05.16.15.3.26a2.47,2.47,0,0,0,.69.36.77.77,0,0,0,0-.9,1.3,1.3,0,0,0-.57-.39,1.18,1.18,0,0,1-.44-.26A1,1,0,0,1,38,20.71Z"/><path class="cls-1" d="M42.42,21a1.19,1.19,0,0,1,.22.65,1.26,1.26,0,0,1-.3.81,3.31,3.31,0,0,1-.47.52,2.77,2.77,0,0,1-.43.34,3.4,3.4,0,0,1-1,.42,1.42,1.42,0,0,1,0-1.14,1.4,1.4,0,0,1,.71-.64c.38-.19.56-.11.84-.29A1.31,1.31,0,0,0,42.42,21Z"/><path class="cls-1" d="M38.19,23.74a1.38,1.38,0,0,0-.23.63,1.44,1.44,0,0,0,.15.81,3.27,3.27,0,0,0,.31.55,2.64,2.64,0,0,0,.29.36,2.53,2.53,0,0,0,.71.47,1.38,1.38,0,0,0,.08-1.26,1.11,1.11,0,0,0-.58-.52,1.36,1.36,0,0,1-.45-.36A1.28,1.28,0,0,1,38.19,23.74Z"/><path class="cls-1" d="M42.44,25.66a1.22,1.22,0,0,1,.05.7,1.37,1.37,0,0,1-.47.75,4.31,4.31,0,0,1-.57.41,3.18,3.18,0,0,1-.49.24,3.08,3.08,0,0,1-1,.19,1.22,1.22,0,0,1,.36-1.26,1.53,1.53,0,0,1,.88-.3,1.52,1.52,0,0,0,.68-.17A1.3,1.3,0,0,0,42.44,25.66Z"/><path class="cls-1" d="M37,27.74a1.57,1.57,0,0,0-.23.63,1.47,1.47,0,0,0,.16.81,3.27,3.27,0,0,0,.33.54,2,2,0,0,0,.31.35,2.29,2.29,0,0,0,.74.48,1.34,1.34,0,0,0,.07-1.25,1.18,1.18,0,0,0-.6-.52,1.28,1.28,0,0,1-.48-.36A1.32,1.32,0,0,1,37,27.74Z"/><path class="cls-1" d="M41.72,29.66a1.27,1.27,0,0,1-.09.7A1.4,1.4,0,0,1,41,31a4.12,4.12,0,0,1-.64.28,2.93,2.93,0,0,1-.53.14,3.18,3.18,0,0,1-1.05,0,1.24,1.24,0,0,1,.61-1.16,1.48,1.48,0,0,1,.93-.1,1.92,1.92,0,0,0,.7,0A1.36,1.36,0,0,0,41.72,29.66Z"/><path class="cls-1" d="M36.25,31a1.6,1.6,0,0,0-.88.12,1.73,1.73,0,0,0-.82.75,3.63,3.63,0,0,0-.39.77,3.81,3.81,0,0,0-.2.64,3.7,3.7,0,0,0,0,1.27,1.6,1.6,0,0,0,1.48-.75,1.75,1.75,0,0,0,.18-1.12,2,2,0,0,1,.07-.84A1.69,1.69,0,0,1,36.25,31Z"/><path class="cls-1" d="M38.84,33.63a1.36,1.36,0,0,1-.11.74,1.44,1.44,0,0,1-.64.68,3.24,3.24,0,0,1-.67.32,2.93,2.93,0,0,1-.54.15,3.17,3.17,0,0,1-1.08,0,1.38,1.38,0,0,1,.65-1.24,1.5,1.5,0,0,1,1-.13,1.68,1.68,0,0,0,.71,0A1.38,1.38,0,0,0,38.84,33.63Z"/><path class="cls-1" d="M32.44,34a2.08,2.08,0,0,0-1.07.16,2,2,0,0,0-1,1,5.61,5.61,0,0,0-.43,1,5.52,5.52,0,0,0-.2.81,4.73,4.73,0,0,0,0,1.61,1.89,1.89,0,0,0,1.77-.95,2.38,2.38,0,0,0,.15-1.42,2.49,2.49,0,0,1,0-1.07A2,2,0,0,1,32.44,34Z"/><path class="cls-1" d="M35.47,37a2,2,0,0,1-1,1.86,5.18,5.18,0,0,1-.81.44,4.18,4.18,0,0,1-.67.21,3.44,3.44,0,0,1-1.3,0,1.93,1.93,0,0,1,.84-1.63,1.74,1.74,0,0,1,1.16-.21,1.93,1.93,0,0,0,.87-.09A2,2,0,0,0,35.47,37Z"/></g></g></svg>