<svg xmlns="http://www.w3.org/2000/svg" viewBox="0 0 47.38 47.38"><defs><style>.cls-1{fill:#211915;stroke:#211915;stroke-miterlimit:10;stroke-width:0.25px;}</style></defs><g id="Capa_2" data-name="Capa 2"><g id="ciencia"><path class="cls-1" d="M23.69.12A23.57,23.57,0,1,0,47.25,23.69,23.57,23.57,0,0,0,23.69.12Zm0,44.72A21.15,21.15,0,1,1,44.84,23.69,21.15,21.15,0,0,1,23.69,44.84Z"/><circle class="cls-1" cx="23.69" cy="23.69" r="4.04"/><path class="cls-1" d="M23.69,4.9c-4.75,0-8.6,8.41-8.6,18.79s3.85,18.79,8.6,18.79,8.6-8.41,8.6-18.79S28.44,4.9,23.69,4.9Zm0,36.06c-3.93,0-7.12-7.73-7.12-17.27S19.76,6.42,23.69,6.42s7.11,7.73,7.11,17.27S27.62,41,23.69,41Z"/><path class="cls-1" d="M40,14.29c-2.37-4.11-11.58-3.24-20.57,1.95S5,29,7.41,33.09,19,36.33,28,31.14,42.34,18.41,40,14.29Zm-31.23,18c-2-3.4,3.14-10,11.4-14.79s16.55-5.88,18.52-2.48-3.14,10-11.4,14.8S10.7,35.73,8.73,32.32Z"/><path class="cls-1" d="M7.41,14.29C5,18.41,10.4,26,19.39,31.14s18.2,6.06,20.57,2S37,21.43,28,16.24,9.79,10.18,7.41,14.29Zm31.24,18c-2,3.41-10.26,2.3-18.52-2.47S6.77,18.46,8.73,15.05,19,12.76,27.25,17.53,40.61,28.92,38.65,32.32Z"/></g></g></svg>