<svg xmlns="http://www.w3.org/2000/svg" viewBox="0 0 47.38 47.38"><defs><style>.cls-1{fill:#211915;stroke:#211915;stroke-miterlimit:10;stroke-width:0.25px;}</style></defs><g id="Capa_2" data-name="Capa 2"><g id="industria"><path class="cls-1" d="M23.69,15.83a7.86,7.86,0,1,0,7.85,7.86A7.86,7.86,0,0,0,23.69,15.83Zm0,14.67a6.81,6.81,0,1,1,6.81-6.81A6.81,6.81,0,0,1,23.69,30.5Z"/><path class="cls-1" d="M42.45,26.63v-6H38.86A15.32,15.32,0,0,0,36.5,15L39,12.49,34.81,8.28l-2.54,2.54A15.52,15.52,0,0,0,26.6,8.5V4.93h-6V8.52A15.29,15.29,0,0,0,15,10.89L12.49,8.37,8.28,12.58l2.53,2.54A15.53,15.53,0,0,0,8.5,20.78H4.93v6H8.52a15.42,15.42,0,0,0,2.36,5.62L8.36,34.89l4.21,4.21,2.54-2.54a15.31,15.31,0,0,0,5.65,2.31v3.58h5.95V38.86a15.27,15.27,0,0,0,5.64-2.36L34.89,39l4.21-4.22-2.55-2.54a15.39,15.39,0,0,0,2.32-5.65Zm-6-2.94A12.72,12.72,0,1,1,23.69,11,12.73,12.73,0,0,1,36.41,23.69Z"/><path class="cls-1" d="M23.69.12A23.57,23.57,0,1,0,47.25,23.69,23.57,23.57,0,0,0,23.69.12Zm0,44.72A21.15,21.15,0,1,1,44.84,23.69,21.15,21.15,0,0,1,23.69,44.84Z"/></g></g></svg>