<svg xmlns="http://www.w3.org/2000/svg" data-name="Layer 1" viewBox="0 0 64 80" x="0px" y="0px"><title>box-4</title><path d="M60.51,12.39l-28-8.67a1.67,1.67,0,0,0-.94,0L19.79,7.35l-4.87,1.5L3.49,12.39a1.59,1.59,0,0,0-1.13,1.53V50.08a1.59,1.59,0,0,0,1.13,1.53l28,8.67a1.61,1.61,0,0,0,.94,0l28-8.67a1.59,1.59,0,0,0,1.13-1.53V13.92A1.59,1.59,0,0,0,60.51,12.39ZM32,6.93l23.63,7.3h0l-7.11,2.2h0L25.16,9Zm-15.23,4.7L40.15,19h0L32,21.53,8.37,14.23h0ZM5.56,15.46l25.49,7.87V56.78L5.56,48.9ZM48.52,52V46.56L47.28,49,46,47.33l-.78,2.27-1.72-1.5v5.41L33.05,56.75h0V23.3L43.5,20.07h0v9.34l1.26-2.28,1.45,1.46.8-2.09,1.49,1.39V18.52l9.92-3.06V48.9Z"/><polygon points="17.91 49.92 20.52 50.81 20.52 43.61 17.91 42.72 17.91 49.92"/><polygon points="21.73 51.22 24.35 52.11 24.35 44.91 21.73 44.02 21.73 51.22"/><polygon points="25.57 45.33 25.57 52.53 28.19 53.42 28.19 46.22 25.57 45.33"/><text x="0" y="79" fill="#000000" font-size="5px" font-weight="bold" font-family="'Helvetica Neue', Helvetica, Arial-Unicode, Arial, Sans-serif">Created by Aman</text><text x="0" y="84" fill="#000000" font-size="5px" font-weight="bold" font-family="'Helvetica Neue', Helvetica, Arial-Unicode, Arial, Sans-serif">from the Noun Project</text></svg>