<?xml version="1.0" standalone="no"?>
<!DOCTYPE svg PUBLIC "-//W3C//DTD SVG 20010904//EN"
 "http://www.w3.org/TR/2001/REC-SVG-20010904/DTD/svg10.dtd">
<svg version="1.0" xmlns="http://www.w3.org/2000/svg"
 width="1080.000000pt" height="1080.000000pt" viewBox="0 0 1080.000000 1080.000000"
 preserveAspectRatio="xMidYMid meet">
<metadata>
Created by potrace 1.14, written by Peter Selinger 2001-2017
</metadata>
<g transform="translate(0.000000,1080.000000) scale(0.100000,-0.100000)"
fill="#000000" stroke="none">
<path d="M5129 10736 c-2 -2 -51 -6 -109 -10 -58 -3 -116 -8 -130 -10 -14 -3
-55 -7 -92 -11 -37 -3 -77 -8 -90 -10 -13 -2 -44 -6 -69 -9 -62 -9 -119 -18
-199 -33 -170 -30 -436 -95 -595 -145 -55 -18 -102 -32 -105 -33 -24 -6 -87
-28 -145 -50 -38 -14 -74 -28 -80 -29 -12 -4 -21 -7 -159 -63 -59 -24 -116
-48 -125 -53 -9 -4 -95 -46 -192 -93 -96 -47 -210 -106 -252 -130 -41 -25 -85
-48 -96 -52 -12 -3 -21 -10 -21 -14 0 -4 -18 -16 -40 -26 -22 -10 -40 -22 -40
-27 0 -4 -5 -8 -10 -8 -10 0 -239 -147 -250 -160 -3 -4 -26 -21 -52 -38 -25
-18 -54 -39 -62 -48 -9 -8 -16 -12 -16 -7 0 4 -4 3 -8 -2 -4 -6 -38 -35 -77
-65 -38 -30 -72 -57 -75 -60 -3 -3 -27 -23 -55 -45 -27 -22 -62 -51 -77 -65
-15 -14 -48 -43 -74 -65 -26 -22 -111 -103 -188 -180 -141 -140 -234 -240
-344 -370 -25 -29 -163 -206 -187 -239 -11 -15 -36 -49 -55 -75 -19 -27 -42
-58 -50 -71 -8 -12 -27 -40 -43 -61 -15 -21 -27 -43 -27 -48 0 -5 -4 -11 -9
-13 -10 -4 -213 -338 -206 -338 3 0 -6 -17 -20 -37 -14 -21 -25 -43 -25 -50 0
-7 -5 -13 -12 -13 -6 0 -8 -3 -5 -6 4 -4 -2 -19 -13 -34 -11 -15 -17 -30 -13
-34 3 -3 1 -6 -5 -6 -7 0 -12 -9 -12 -20 0 -11 -4 -20 -10 -20 -5 0 -10 -9
-10 -20 0 -11 -4 -20 -10 -20 -5 0 -10 -8 -10 -18 0 -10 -4 -22 -9 -28 -5 -5
-32 -63 -60 -129 -29 -66 -56 -129 -61 -140 -30 -70 -146 -396 -155 -436 -2
-8 -11 -40 -20 -70 -28 -91 -73 -269 -69 -269 3 0 0 -8 -5 -17 -5 -10 -12 -34
-15 -53 -3 -19 -14 -78 -25 -130 -11 -53 -23 -113 -26 -135 -4 -22 -8 -51 -11
-65 -2 -14 -6 -47 -10 -75 -3 -27 -7 -52 -9 -55 -2 -3 -6 -41 -10 -85 -4 -44
-9 -93 -11 -110 -33 -254 -25 -840 17 -1160 6 -49 13 -101 15 -115 1 -14 8
-54 14 -90 6 -36 13 -76 15 -90 8 -53 61 -297 75 -350 44 -160 105 -362 135
-445 19 -55 37 -107 39 -115 3 -8 28 -71 56 -140 28 -69 59 -143 68 -165 32
-79 252 -506 275 -534 7 -9 19 -27 25 -41 26 -51 238 -377 262 -400 3 -3 25
-32 50 -65 52 -71 196 -250 225 -281 11 -12 40 -46 65 -74 59 -69 353 -363
416 -417 27 -23 63 -54 79 -68 17 -15 64 -54 105 -87 41 -34 81 -68 88 -77 6
-8 12 -12 12 -8 0 6 9 0 63 -46 12 -10 34 -26 50 -35 15 -9 27 -20 27 -24 0
-4 6 -8 14 -8 8 0 16 -4 18 -8 3 -9 303 -212 312 -212 2 0 41 -23 86 -51 45
-28 89 -53 98 -56 10 -4 19 -9 22 -13 6 -8 343 -176 415 -207 28 -12 68 -29
90 -38 22 -9 54 -22 70 -30 144 -65 618 -217 775 -249 14 -3 68 -15 120 -26
52 -12 119 -25 148 -30 30 -5 61 -11 70 -14 10 -3 40 -7 67 -11 66 -8 114 -15
145 -20 14 -2 52 -7 85 -10 33 -4 71 -8 84 -10 157 -26 840 -26 1036 -1 17 2
57 7 90 11 33 3 74 8 90 10 79 11 112 15 135 20 14 2 41 6 60 9 19 3 82 15
140 27 58 11 114 23 125 25 156 29 564 153 765 231 52 21 97 38 100 39 11 2
147 62 235 104 33 15 78 36 100 46 22 10 42 20 45 23 3 4 32 19 65 35 33 17
72 38 88 49 15 10 27 16 27 13 0 -4 36 16 81 44 44 27 83 50 86 50 9 0 298
193 403 268 99 72 127 93 154 117 6 6 45 37 86 70 41 32 80 64 86 70 6 5 42
37 79 70 130 115 369 358 490 500 33 39 62 72 65 75 15 14 155 196 208 270 34
47 65 90 69 95 27 36 73 104 73 109 0 3 16 28 35 55 19 26 35 53 35 59 0 6 4
12 8 14 11 4 182 303 182 317 0 6 5 11 10 11 6 0 9 3 8 8 0 4 32 75 73 157 40
83 74 155 75 160 1 6 15 39 32 75 43 93 173 449 187 510 1 9 14 54 29 100 31
106 89 345 111 465 21 114 22 115 35 210 6 44 13 91 16 105 2 14 7 54 10 90 2
36 7 79 9 95 27 174 27 794 0 1025 -2 19 -7 60 -10 90 -8 72 -13 106 -20 155
-4 22 -8 51 -10 65 -1 14 -8 52 -14 85 -6 33 -13 75 -16 94 -3 19 -7 37 -9 40
-2 3 -7 23 -10 44 -6 39 -30 143 -46 207 -22 84 -52 189 -67 240 -9 30 -18 60
-19 65 -3 11 -57 166 -99 283 -14 41 -34 93 -44 115 -10 23 -28 67 -41 97 -12
30 -26 62 -31 70 -5 8 -12 24 -16 35 -11 34 -230 462 -243 475 -5 5 -18 27
-44 75 -6 11 -14 22 -17 25 -3 3 -12 16 -19 30 -7 14 -52 83 -99 153 -47 71
-90 136 -96 145 -5 9 -15 21 -21 27 -5 5 -23 28 -39 50 -16 22 -33 45 -37 50
-110 140 -146 185 -158 198 -8 9 -19 22 -25 29 -39 51 -182 204 -296 318 -160
160 -232 225 -389 352 -41 34 -81 68 -87 77 -7 8 -13 12 -13 8 0 -8 -4 -6 -65
48 -22 19 -44 35 -48 35 -4 0 -20 11 -35 25 -15 14 -32 25 -39 25 -6 0 -13 4
-15 8 -1 5 -32 28 -68 52 -36 24 -66 47 -68 52 -2 4 -8 8 -12 8 -8 0 -111 62
-146 87 -11 9 -38 24 -103 61 -25 14 -62 35 -81 47 -19 12 -50 28 -67 36 -18
8 -33 17 -33 21 0 5 -3 7 -7 6 -5 -1 -62 25 -128 58 -138 69 -289 136 -424
189 -93 36 -312 113 -341 120 -8 2 -44 13 -80 24 -68 21 -237 67 -280 76 -14
2 -65 14 -115 25 -82 18 -240 48 -290 55 -11 2 -40 6 -65 9 -25 4 -63 9 -85
12 -22 2 -51 6 -65 9 -14 2 -65 7 -114 10 -50 4 -99 9 -110 12 -24 5 -662 14
-667 9z"/>
</g>
</svg>
